<?xml version="1.0" encoding="UTF-8"?>
<svg width="32px" height="62px" viewBox="0 0 32 62" version="1.1" xmlns="http://www.w3.org/2000/svg" xmlns:xlink="http://www.w3.org/1999/xlink">
    <title>Bd</title>
    <g id="Participant" stroke="none" stroke-width="1" fill="none" fill-rule="evenodd">
        <g id="03_form_Manager_Onboarding_KPI--Copy-6" transform="translate(-711.000000, -467.000000)" fill="#FFFFFF" fill-rule="nonzero">
            <g id="Group-5" transform="translate(366.000000, 236.000000)">
                <path d="M371.198,249.602 L374.895,246.829 L369.708,244.235 C369.892,243.521 369.999,242.777 370,242.007 C372.3,241.39 374,240.436 374,238.999 C374,237.687 372.678,236.701 370,235.99 L370,235.236 C370,232.9 368.1,231 365.764,231 C365.11,231 364.455,231.154 363.87,231.447 C363.146,231.809 362.336,232 361.527,232 L360.472,232 C359.664,232 358.854,231.809 358.13,231.447 C357.545,231.155 356.89,231 356.236,231 C353.9,231 352,232.9 352,235.236 L352,235.991 C349.322,236.702 348,237.688 348,239 C348,240.437 349.7,241.391 352,242.008 C352.001,242.778 352.109,243.522 352.292,244.236 L347.105,246.83 L350.802,249.603 C347.343,250.914 345,254.234 345,258 L345,268 C345,271.305 347.686,273.995 350.99,274 L348.847,289 L351,289 L351,293 L371,293 L371,289 L373.153,289 L371.01,274 C374.314,273.995 377,271.305 377,268 L377,258 C377,254.234 374.657,250.914 371.198,249.602 Z M371.105,247.171 L367.732,249.701 L368.738,251.714 L362.229,256.777 L365.825,249.584 C367.164,248.729 368.261,247.533 368.993,246.116 L371.105,247.171 Z M359.003,250.769 C359.646,250.915 360.313,251 361,251 C361.687,251 362.354,250.915 362.997,250.769 L361,254.764 L359.003,250.769 Z M352,238.066 L352,239 L354,239 L354,235.236 C354,234.003 355.003,233 356.236,233 C356.581,233 356.926,233.082 357.236,233.236 C358.236,233.736 359.355,234 360.472,234 L361.527,234 C362.645,234 363.764,233.736 364.764,233.236 C365.073,233.082 365.418,233 365.764,233 C366.997,233 368,234.003 368,235.236 L368,239 L370,239 L370,238.066 C371.347,238.478 371.824,238.861 371.961,239.009 C371.374,239.764 367.439,241 361,241 C354.561,241 350.626,239.764 350.039,239.009 C350.176,238.861 350.653,238.478 352,238.066 Z M361,243 C363.023,243 365.628,242.849 367.977,242.445 C367.746,246.097 364.71,249 361,249 C357.29,249 354.254,246.097 354.023,242.445 C356.372,242.849 358.977,243 361,243 Z M353.005,246.115 C353.738,247.532 354.835,248.728 356.173,249.583 L359.769,256.776 L353.26,251.713 L354.266,249.7 L350.893,247.17 L353.005,246.115 Z M347.142,269 L351,269 L351,272 C349.142,272 347.589,270.72 347.142,269 Z M352.99,274.142 L352.995,273 L353,273 L353,257 L351,257 L351,267 L347,267 L347,258 C347,255.245 348.616,252.798 351.048,251.668 L350.739,252.286 L360,259.489 L360,287 L353,287 L352,287 L351.153,287 L352.99,274.142 Z M353,289 L360,289 L360,291 L353,291 L353,289 Z M362,291 L362,289 L369,289 L369,291 L362,291 Z M371,272 L371,269 L374.858,269 C374.411,270.72 372.858,272 371,272 Z M375,267 L371,267 L371,257 L369,257 L369,272 L369,273 L369,274 L370.847,287 L370,287 L369,287 L362,287 L362,259.489 L371.261,252.286 L370.952,251.668 C373.384,252.798 375,255.245 375,258 L375,267 Z" id="Bd"></path>
            </g>
        </g>
    </g>
</svg>

