<?xml version="1.0" encoding="UTF-8"?>
<svg width="32px" height="62px" viewBox="0 0 32 62" version="1.1" xmlns="http://www.w3.org/2000/svg" xmlns:xlink="http://www.w3.org/1999/xlink">
    <title>finance</title>
    <g id="Participant" stroke="none" stroke-width="1" fill="none" fill-rule="evenodd">
        <g id="03_form_Manager_Onboarding_KPI--Copy-6" transform="translate(-831.000000, -467.000000)" fill="#FFFFFF" fill-rule="nonzero">
            <g id="Group-5" transform="translate(366.000000, 236.000000)">
                <g id="Group-3" transform="translate(66.000000, 76.000000)">
                    <path d="M418,155 C421.309,155 424,157.691 424,161 L424,161 L424,169 C424,170.462 423.642,171.84 423.02,173.062 C427.504,173.571 431,177.383 431,182 L431,182 L431,192 C431,195.309 428.309,198 425,198 L425,198 L425,217 L405,217 L405,198 C401.691,198 399,195.309 399,192 L399,192 L399,182 C399,177.383 402.496,173.571 406.98,173.062 C406.358,171.84 406,170.462 406,169 L406,169 L406,161 C406,157.691 408.691,155 412,155 L412,155 Z M414,213 L407,213 L407,215 L414,215 L414,213 Z M423,213 L416,213 L416,215 L423,215 L423,213 Z M419.667,182 L410.333,182 L407,184.5 L407,211 L414,211 L414,200 L416,200 L416,211 L423,211 L423,184.5 L419.667,182 Z M405,192 L401,192 C401,194.206 402.794,196 405,196 L405,196 L405,192 Z M429,192 L425,192 L425,196 C427.206,196 429,194.206 429,192 L429,192 Z M408.311,175 L408,175 C404.141,175 401,178.14 401,182 L401,182 L401,190 L405,190 L405,180 L407,180 L407,182 L409,180.5 L409,175.689 C408.758,175.472 408.528,175.242 408.311,175 L408.311,175 Z M422,175 L421.689,175 C421.472,175.242 421.242,175.472 421,175.689 L421,175.689 L421,180.5 L423,182 L423,180 L425,180 L425,190 L429,190 L429,182 C429,178.14 425.859,175 422,175 L422,175 Z M420,184 L420,186 L410,186 L410,184 L420,184 Z M419,177.05 C417.793,177.653 416.438,178 415,178 C413.562,178 412.207,177.652 411,177.05 L411,177.05 L411,180 L419,180 Z M418,157 L412,157 C409.794,157 408,158.794 408,161 L408,161 L408,169 C408,172.86 411.141,176 415,176 C418.859,176 422,172.86 422,169 L422,169 L422,161 C422,158.794 420.206,157 418,157 L418,157 Z M417,169 L417,171 L409,171 L409,169 L417,169 Z M421,169 L421,171 L419,171 L419,169 L421,169 Z M421,161 L421,168 L409,168 L409,161 L421,161 Z M419,163 L411,163 L411,166 L419,166 L419,163 Z" id="finance"></path>
                </g>
            </g>
        </g>
    </g>
</svg>