<?xml version="1.0" encoding="UTF-8"?>
<svg width="32px" height="62px" viewBox="0 0 32 62" version="1.1" xmlns="http://www.w3.org/2000/svg" xmlns:xlink="http://www.w3.org/1999/xlink">
    <title>HR</title>
    <g id="Participant" stroke="none" stroke-width="1" fill="#FFFFFF" fill-rule="evenodd">
        <g id="03_form_Manager_Onboarding_KPI--Copy-6" transform="translate(-591.000000, -467.000000)" fill="red" fill-rule="nonzero">
            <g id="Group-5" transform="translate(366.000000, 236.000000)">
                <g id="Group-3" transform="translate(66.000000, 76.000000)">
                    <path d="M182,173 L180.644,173 C182.688,171.349 184,168.826 184,166 L187,166 L187,164 L184,164 L184,155 L166,155 L166,164 L163,164 L163,166 L166,166 C166,168.826 167.312,171.349 169.356,173 L168,173 C163.038,173 159,177.037 159,182 L159,192 C159,195.309 161.691,198 165,198 L165,217 L185,217 L185,198 C188.309,198 191,195.309 191,192 L191,182 C191,177.037 186.962,173 182,173 Z M174,200 L174,211 L167,211 L167,201.618 L170.447,203.342 L173,198.236 L173,196 L177,196 L177,198.236 L179.553,203.341 L183,201.618 L183,211 L176,211 L176,200 L174,200 Z M177,194 L173,194 L173,191 L177,191 L177,194 Z M177,189 L173,189 L173,178.535 L175,177.202 L177,178.535 L177,189 Z M171.832,175.09 L173.197,176 L171.832,176.91 C171.498,177.131 171,176.865 171,176.465 L171,175.535 C171,175.24 171.24,175 171.535,175 C171.641,175 171.744,175.031 171.832,175.09 Z M178.168,176.91 L176.803,176 L178.168,175.09 C178.501,174.868 179,175.134 179,175.535 L179,176.465 C179,176.865 178.501,177.131 178.168,176.91 Z M182,157 L182,161 L168,161 L168,157 L182,157 Z M168,163 L182,163 L182,164 L168,164 L168,163 Z M168,166 L182,166 C182,169.859 178.86,173 175,173 C171.14,173 168,169.859 168,166 Z M161,182 C161,178.141 164.14,175 168,175 L169.059,175 C169.022,175.173 169,175.351 169,175.535 L169,176.465 C169,177.679 169.859,178.694 171,178.941 L171,197.764 L169.553,200.659 L167,199.382 L167,180 L165,180 L165,192 L161,192 L161,182 Z M161.556,194 L165,194 L165,196 C163.526,196 162.25,195.19 161.556,194 Z M167,215 L167,213 L174,213 L174,215 L167,215 Z M176,215 L176,213 L183,213 L183,215 L176,215 Z M185,196 L185,194 L188.444,194 C187.75,195.19 186.474,196 185,196 Z M189,192 L185,192 L185,180 L183,180 L183,199.382 L180.447,200.658 L179,197.764 L179,178.941 C180.141,178.694 181,177.679 181,176.465 L181,175.535 C181,175.351 180.978,175.173 180.941,175 L182,175 C185.86,175 189,178.141 189,182 L189,192 Z" id="HR"></path>
                </g>
            </g>
        </g>
    </g>
</svg>