<?xml version="1.0" encoding="UTF-8"?>
<svg width="32px" height="62px" viewBox="0 0 32 62" version="1.1" xmlns="http://www.w3.org/2000/svg" xmlns:xlink="http://www.w3.org/1999/xlink">
    <title>IT</title>
    <g id="Participant" stroke="none" stroke-width="1" fill="none" fill-rule="evenodd">
        <g id="03_form_Manager_Onboarding_KPI--Copy-6" transform="translate(-591.000000, -312.000000)" fill="#FFFFFF" fill-rule="nonzero">
            <g id="Group-5" transform="translate(366.000000, 236.000000)">
                <g id="Group-3" transform="translate(66.000000, 76.000000)">
                    <path d="M182,18 L180.645,18 C181.038,17.682 181.4,17.329 181.735,16.95 C184.697,16.586 187,14.059 187,11 L187,6 C187,4.346 185.654,3 184,3 L183.873,3 C183.429,1.276 181.86,0 180,0 L170,0 C166.141,0 163,3.141 163,7 L163,11 C163,14.059 165.303,16.586 168.266,16.95 C168.601,17.328 168.963,17.682 169.356,18 L168,18 C163.037,18 159,22.037 159,27 L159,37 C159,40.309 161.691,43 165,43 L165,62 L185,62 L185,43 C188.309,43 191,40.309 191,37 L191,27 C191,22.037 186.963,18 182,18 Z M171.556,33 L170,33 L170,28 L172.382,28 C171.542,28.734 171,29.799 171,31 C171,31.732 171.212,32.409 171.556,33 Z M173,31 C173,29.897 173.897,29 175,29 C176.103,29 177,29.897 177,31 C177,32.103 176.103,33 175,33 C173.897,33 173,32.103 173,31 Z M177.618,28 L180,28 L180,33 L178.444,33 C178.788,32.409 179,31.732 179,31 C179,29.799 178.458,28.734 177.618,28 Z M174.693,26 L172.443,20 L177.556,20 L175.306,26 L174.693,26 Z M165,11 L165,7 C165,4.243 167.243,2 170,2 L180,2 C181.103,2 182,2.897 182,4 L182,5 L184,5 C184.552,5 185,5.448 185,6 L185,11 C185,12.296 184.371,13.438 183.413,14.169 C183.786,13.182 184,12.117 184,11 L184,8 L183,8 C182.234,8 181.558,7.512 181.316,6.786 L180.721,5 L178.28,5 L178.051,5.684 C177.59,7.069 176.299,8 174.838,8 L166,8 L166,11 C166,12.117 166.214,13.182 166.587,14.169 C165.629,13.438 165,12.296 165,11 Z M168,11 L168,10 L174.838,10 C176.739,10 178.461,9.008 179.426,7.439 C179.836,8.646 180.813,9.541 182,9.866 L182,11 C182,14.859 178.859,18 175,18 C171.141,18 168,14.859 168,11 Z M161.556,39 L165,39 L165,41 C163.526,41 162.25,40.19 161.556,39 Z M174,45 L174,56 L167,56 L167,41 L183,41 L183,56 L176,56 L176,45 L174,45 Z M167,60 L167,58 L174,58 L174,60 L167,60 Z M176,60 L176,58 L183,58 L183,60 L176,60 Z M185,41 L185,39 L188.444,39 C187.75,40.19 186.474,41 185,41 Z M189,37 L185,37 L185,25 L183,25 L183,39 L167,39 L167,25 L165,25 L165,37 L161,37 L161,27 C161,23.141 164.141,20 168,20 L170.307,20 L172.557,26 L168,26 L168,35 L182,35 L182,26 L177.443,26 L179.693,20 L182,20 C185.859,20 189,23.141 189,27 L189,37 Z" id="IT"></path>
                </g>
            </g>
        </g>
    </g>
</svg>