<?xml version="1.0" encoding="UTF-8"?>
<svg width="32px" height="62px" viewBox="0 0 32 62" version="1.1" xmlns="http://www.w3.org/2000/svg" xmlns:xlink="http://www.w3.org/1999/xlink">
    <title>marketing</title>
    <g id="Participant" stroke="none" stroke-width="1" fill="none" fill-rule="evenodd">
        <g id="03_form_Manager_Onboarding_KPI--Copy-6" transform="translate(-831.000000, -312.000000)" fill="#FFFFFF" fill-rule="nonzero">
            <g id="Group-5" transform="translate(366.000000, 236.000000)">
                <g id="Group-3" transform="translate(66.000000, 76.000000)">
                    <path d="M415.584,0 C418.627,0 421.675,0.719 424.397,2.081 C426.003,2.883 427,4.497 427,6.292 C427,8.285 425.752,9.982 424,10.668 L424,10.668 L424,11 C424,13.306 423.121,15.406 421.689,17 L421.689,17 L425.5,17 C426.879,17 428,18.122 428,19.5 C428,19.743 427.954,19.974 427.889,20.196 C429.853,21.896 431,24.368 431,27 L431,27 L431,37 C431,40.309 428.309,43 425,43 L425,43 L425,62 L405,62 L405,43 C401.691,43 399,40.309 399,37 L399,37 L399,27 C399,24.376 400.151,21.902 402.112,20.201 C402.046,19.977 402,19.745 402,19.5 C402,18.122 403.121,17 404.5,17 L404.5,17 L408.311,17 C406.879,15.406 406,13.306 406,11 L406,11 L406,10.668 C404.248,9.981 403,8.284 403,6.292 C403,4.497 403.997,2.883 405.603,2.081 C408.325,0.719 411.373,0 414.416,0 L414.416,0 Z M414,58 L407,58 L407,60 L414,60 L414,58 Z M423,58 L416,58 L416,60 L423,60 L423,58 Z M423,41 L407,41 L407,56 L414,56 L414,45 L416,45 L416,56 L423,56 L423,41 Z M405,39 L401.556,39 C402.25,40.19 403.526,41 405,41 L405,41 L405,39 Z M428.444,39 L425,39 L425,41 C426.474,41 427.75,40.19 428.444,39 L428.444,39 Z M403.396,21.732 C401.885,23.054 401,24.97 401,27 L401,27 L401,33 L405,33 L405,25 L407,25 L407,39 L413.006,39 L413.03,34.758 L413.671,32.195 L407.878,27.366 L408.835,23.535 L406.777,22.506 L406.946,22 L404.5,22 C404.102,22 403.731,21.898 403.396,21.732 Z M426.607,21.73 C426.272,21.897 425.899,22 425.5,22 L425.5,22 L423.054,22 L423.223,22.507 L421.165,23.536 L422.097,27.265 L415,35.376 L415,39 L423,39 L423,25 L425,25 L425,33 L429,33 L429,27 C429,24.965 428.118,23.052 426.607,21.73 Z M405,35 L401,35 L401,37 L405,37 L405,35 Z M429,35 L425,35 L425,37 L429,37 L429,35 Z M422,35 L422,37 L417,37 L417,35 L422,35 Z M413,35 L413,37 L408,37 L408,35 L413,35 Z M420.279,20 L418.78,20 L415.974,31.226 L419.903,26.736 L418.835,22.465 L420.777,21.494 L420.279,20 Z M411.204,20 L409.72,20 L409.223,21.494 L411.165,22.464 L410.122,26.633 L413.357,29.329 L411.204,20 Z M416.72,20 L413.257,20 L414.92,27.202 L416.72,20 Z M425.5,19 L422.054,19 L422.387,20 L425.5,20 C425.775,20 426,19.776 426,19.5 C426,19.224 425.775,19 425.5,19 L425.5,19 Z M407.946,19 L404.5,19 C404.225,19 404,19.224 404,19.5 C404,19.776 404.225,20 404.5,20 L404.5,20 L407.613,20 L407.946,19 Z M415,11 C413.696,11 412.938,11.27 412.204,11.531 C411.558,11.762 410.89,12 410,12 C409.258,12 408.588,11.72 408.018,11.355 C408.205,15.049 411.26,18 415,18 C418.74,18 421.795,15.049 421.982,11.355 C421.412,11.72 420.742,12 420,12 C419.11,12 418.442,11.762 417.796,11.531 C417.062,11.27 416.304,11 415,11 Z M415,7 C411.76,7 409.186,7.497 408,7.775 L408,7.775 L408,8.662 C408.406,9.162 409.244,10 410,10 C410.544,10 410.959,9.852 411.533,9.647 C412.343,9.359 413.351,9 415,9 C416.649,9 417.657,9.359 418.467,9.647 C419.041,9.852 419.456,10 420,10 C420.756,10 421.592,9.163 422,8.662 L422,8.662 L422,7.775 C420.814,7.497 418.24,7 415,7 Z M415.584,2 L414.416,2 C411.682,2 408.943,2.646 406.497,3.87 C405.573,4.331 405,5.259 405,6.292 C405,7.134 405.395,7.879 406,8.376 L406,8.376 L406,6.258 L406.71,6.043 C406.851,6 410.21,5 415,5 C419.79,5 423.149,6 423.29,6.043 L423.29,6.043 L424,6.258 L424,8.376 C424.605,7.879 425,7.134 425,6.292 C425,5.259 424.427,4.331 423.503,3.87 C421.057,2.646 418.318,2 415.584,2 L415.584,2 Z" id="marketing"></path>
                </g>
            </g>
        </g>
    </g>
</svg>