<?xml version="1.0" encoding="UTF-8"?>
<svg width="32px" height="62px" viewBox="0 0 32 62" version="1.1" xmlns="http://www.w3.org/2000/svg" xmlns:xlink="http://www.w3.org/1999/xlink">
    <title>operations</title>
    <g id="Participant" stroke="none" stroke-width="1" fill="none" fill-rule="evenodd">
        <g id="03_form_Manager_Onboarding_KPI--Copy-6" transform="translate(-951.000000, -314.000000)" fill="red" fill-rule="nonzero">
            <g id="Group-5" transform="translate(366.000000, 236.000000)">
                <g id="Group-3" transform="translate(66.000000, 76.000000)">
                    <path d="M536.246,2 C538.075,2 539.755,2.64 541.082,3.703 C541.612,3.26 542.288,3 543,3 C544.338,3 545.475,3.881 545.86,5.093 C547.654,5.487 549,7.09 549,9 C549,9.177 548.988,9.354 548.964,9.528 C550.198,10.225 551,11.543 551,13 C551,15.206 549.206,17 547,17 C546.761,17 546.524,16.979 546.292,16.937 C545.731,17.601 544.901,18 544,18 C543.532,18 543.081,17.884 542.672,17.681 C542.131,18.565 541.447,19.351 540.644,20 L540.644,20 L542,20 C546.962,20 551,24.037 551,29 L551,29 L551,39 C551,42.309 548.309,45 545,45 L545,45 L546.074,60 L545,60 L545,64 L525,64 L525,60 L523.926,60 L524.998,45 C521.69,44.999 519,42.308 519,39 L519,39 L519,29 C519,24.037 523.038,20 528,20 L528,20 L529.356,20 C528.553,19.351 527.869,18.565 527.328,17.681 C526.919,17.884 526.468,18 526,18 C525.099,18 524.269,17.601 523.708,16.938 C523.476,16.979 523.239,17 523,17 C520.794,17 519,15.206 519,13 C519,11.543 519.802,10.225 521.036,9.528 C521.012,9.354 521,9.177 521,9 C521,7.09 522.346,5.487 524.14,5.093 C524.525,3.881 525.662,3 527,3 C527.712,3 528.388,3.26 528.919,3.703 C530.246,2.64 531.926,2 533.755,2 L533.755,2 Z M534,55.766 L531.58,60 L527,60 L527,62 L534,62 L534,55.766 Z M536,55.766 L536,62 L543,62 L543,60 L538.42,60 L536,55.766 Z M543,27.515 L536,32.514 L536,51.734 L539.58,58 L543.926,58 L543,45 L543,27.515 Z M527,27.515 L527,45 L526.074,58 L530.42,58 L534,51.734 L534,32.514 L527,27.515 Z M525,40 L521.142,40 C521.589,41.721 523.142,43 525,43 L525,43 L525,40 Z M548.858,40 L545,40 L545,43 C546.858,43 548.411,41.721 548.858,40 L548.858,40 Z M527.564,22.022 C523.908,22.249 521,25.288 521,29 L521,29 L521,38 L525,38 L525,27 L526.586,27 L528.149,25.437 L525.149,24.437 Z M542.436,22.023 L544.851,24.438 L541.851,25.438 L543.414,27 L545,27 L545,38 L549,38 L549,29 C549,25.288 546.092,22.249 542.436,22.023 L542.436,22.023 Z M531.245,21.169 L528.851,23.563 L531.851,24.563 L529.542,26.873 L534.284,30.261 L532.097,21.511 C531.805,21.411 531.522,21.297 531.245,21.169 L531.245,21.169 Z M538.755,21.168 C538.478,21.296 538.194,21.41 537.903,21.51 L537.903,21.51 L535.716,30.26 L540.458,26.872 L538.149,24.562 L541.149,23.562 Z M535.728,21.963 C535.487,21.983 535.246,22 535,22 C534.754,22 534.513,21.983 534.272,21.963 L534.272,21.963 L535,24.877 Z M536.245,4 L533.754,4 C530.582,4 528,6.581 528,9.754 L528,9.754 L528,13 C528,16.859 531.14,20 535,20 C538.86,20 542,16.859 542,13 L542,13 L542,9.754 C542,6.581 539.418,4 536.245,4 L536.245,4 Z M543,5 C542.808,5 542.627,5.055 542.473,5.153 C543.428,6.442 544,8.03 544,9.754 L544,9.754 L544,13 C544,13.999 543.83,14.957 543.528,15.855 C544.018,16.093 544.702,15.913 544.923,15.384 L544.923,15.384 L545.308,14.46 L546.231,14.846 C546.476,14.948 546.735,15 547,15 C548.103,15 549,14.103 549,13 C549,12.106 548.391,11.316 547.519,11.08 L547.519,11.08 L546.433,10.786 L546.853,9.742 C546.95,9.499 547,9.249 547,9 C547,7.897 546.103,7 545,7 L545,7 L544,7 L544,6 C544,5.448 543.551,5 543,5 Z M527,5 C526.449,5 526,5.448 526,6 L526,6 L526,7 L525,7 C523.897,7 523,7.897 523,9 C523,9.249 523.05,9.499 523.147,9.742 L523.147,9.742 L523.567,10.786 L522.481,11.08 C521.609,11.316 521,12.106 521,13 C521,14.103 521.897,15 523,15 C523.265,15 523.523,14.948 523.768,14.846 L523.768,14.846 L524.691,14.46 L525.077,15.383 C525.298,15.914 525.982,16.093 526.472,15.855 C526.17,14.957 526,13.999 526,13 L526,13 L526,9.754 C526,8.03 526.572,6.442 527.527,5.153 C527.373,5.055 527.192,5 527,5 Z M539,8 C540.654,8 542,9.346 542,11 C542,12.654 540.654,14 539,14 C537.496,14 536.258,12.884 536.044,11.438 C535.862,11.266 535.507,11 535,11 C534.494,11 534.138,11.266 533.956,11.438 C533.741,12.884 532.504,14 531,14 C529.346,14 528,12.654 528,11 C528,9.346 529.346,8 531,8 C532.046,8 532.966,8.54 533.503,9.354 C533.928,9.147 534.43,9 535,9 C535.57,9 536.072,9.147 536.497,9.354 C537.034,8.54 537.954,8 539,8 Z M539,10 C538.449,10 538,10.448 538,11 C538,11.552 538.449,12 539,12 C539.551,12 540,11.552 540,11 C540,10.448 539.551,10 539,10 Z M531,10 C530.449,10 530,10.448 530,11 C530,11.552 530.449,12 531,12 C531.551,12 532,11.552 532,11 C532,10.448 531.551,10 531,10 Z" id="operations"></path>
                </g>
            </g>
        </g>
    </g>
</svg>