<?xml version="1.0" encoding="UTF-8"?>
<svg width="32px" height="62px" viewBox="0 0 32 62" version="1.1" xmlns="http://www.w3.org/2000/svg" xmlns:xlink="http://www.w3.org/1999/xlink">
    <title>other</title>
    <g id="Participant" stroke="none" stroke-width="1" fill="none" fill-rule="evenodd">
        <g id="03_form_Manager_Onboarding_KPI--Copy-6" transform="translate(-951.000000, -467.000000)" fill="#FFFFFF" fill-rule="nonzero">
            <g id="Group-5" transform="translate(366.000000, 236.000000)">
                <g id="Group-3" transform="translate(66.000000, 76.000000)">
                    <path d="M542,173 L540.644,173 C542.688,171.349 544,168.826 544,166 L544,162.754 C544,158.479 540.521,155 536.246,155 L533.754,155 C529.479,155 526,158.479 526,162.754 L526,166 C526,168.826 527.312,171.349 529.356,173 L528,173 C523.037,173 519,177.038 519,182 L519,192 C519,195.309 521.691,198 525,198 L525,217 L545,217 L545,198 C548.309,198 551,195.309 551,192 L551,182 C551,177.038 546.963,173 542,173 Z M538.754,175 C538.202,176.161 536.736,177 535,177 C533.264,177 531.798,176.161 531.246,175 L538.754,175 Z M533.754,157 L536.246,157 C539.419,157 542,159.582 542,162.754 L542,163.14 C541.457,162.682 540.968,162.15 540.557,161.533 C539.918,160.573 538.848,160 537.693,160 L532.306,160 C531.152,160 530.081,160.573 529.408,161.585 C529.017,162.172 528.537,162.692 528,163.143 L528,162.754 C528,159.582 530.581,157 533.754,157 Z M528,166 L528,165.571 C529.223,164.85 530.288,163.871 531.107,162.641 C531.375,162.24 531.823,162 532.307,162 L537.694,162 C538.177,162 538.626,162.24 538.928,162.694 C539.717,163.877 540.778,164.851 542,165.571 L542,166 C542,169.86 538.859,173 535,173 C531.141,173 528,169.86 528,166 Z M521,192 L521,184 L525,184 L525,196 C522.794,196 521,194.206 521,192 Z M534,200 L534,211 L527,211 L527,200.899 C529.279,200.434 531,198.415 531,196 L539,196 C539,198.414 540.721,200.434 543,200.899 L543,211 L536,211 L536,200 L534,200 Z M527,196 L529,196 C529,197.302 528.161,198.402 527,198.816 L527,196 Z M541,196 L543,196 L543,198.816 C541.839,198.402 541,197.302 541,196 Z M527,194 L527,187 L543,187 L543,194 L527,194 Z M527,185 L527,183 L543,183 L543,185 L527,185 Z M527,215 L527,213 L534,213 L534,215 L527,215 Z M536,215 L536,213 L543,213 L543,215 L536,215 Z M545,196 L545,184 L549,184 L549,192 C549,194.206 547.206,196 545,196 Z M545,182 L545,180 L543,180 L543,181 L527,181 L527,180 L525,180 L525,182 L521,182 C521,178.14 524.141,175 528,175 L529.121,175 C529.679,177.279 532.102,179 535,179 C537.898,179 540.321,177.279 540.879,175 L542,175 C545.859,175 549,178.14 549,182 L545,182 Z" id="other"></path>
                </g>
            </g>
        </g>
    </g>
</svg>