<?xml version="1.0" encoding="UTF-8"?>
<svg width="32px" height="62px" viewBox="0 0 32 62" version="1.1" xmlns="http://www.w3.org/2000/svg" xmlns:xlink="http://www.w3.org/1999/xlink">
    <title>RnD</title>
    <g id="Participant" stroke="none" stroke-width="1" fill="none" fill-rule="evenodd">
        <g id="03_form_Manager_Onboarding_KPI--Copy-6" transform="translate(-471.000000, -314.000000)" fill="red" fill-rule="nonzero">
            <g id="Group-5" transform="translate(366.000000, 236.000000)">
                <g id="Group-3" transform="translate(66.000000, 76.000000)">
                    <path d="M55,2 C61.065,2 66,6.935 66,13 L66,13 L66,20.95 C68.958,22.426 71,25.475 71,29 L71,29 L71,39 C71,42.309 68.309,45 65,45 L65,45 L65,64 L45,64 L45,45 C41.691,45 39,42.309 39,39 L39,39 L39,29 C39,25.475 41.042,22.426 44,20.95 L44,20.95 L44,13 C44,6.935 48.935,2 55,2 Z M54,60 L47,60 L47,62 L54,62 L54,60 Z M63,60 L56,60 L56,62 L63,62 L63,60 Z M49,43 L47,43 L47,51 L51,51 L51,53 L47,53 L47,58 L54,58 L54,53 L53,53 L53,51 L54,51 L54,47 L56,47 L56,51 L60,51 L60,53 L56,53 L56,58 L63,58 L63,53 L62,53 L62,51 L63,51 L63,43 L61,43 L61,44 L59,44 L59,43 L56,43 L56,44 L54,44 L54,43 L51,43 L51,44 L49,44 L49,43 Z M45,39 L41,39 C41,41.206 42.794,43 45,43 L45,43 L45,39 Z M69,39 L65,39 L65,43 C67.206,43 69,41.206 69,39 L69,39 Z M62,22 L48,22 C44.141,22 41,25.14 41,29 L41,29 L41,37 L45,37 L45,27 L47,27 L47,41 L49,41 L49,40 L51,40 L51,41 L54,41 L54,40 L56,40 L56,41 L59,41 L59,40 L61,40 L61,41 L63,41 L63,27 L65,27 L65,37 L69,37 L69,29 C69,25.14 65.859,22 62,22 L62,22 Z M62,24 L62,37 L48,37 L48,24 L62,24 Z M60,26 L50,26 L50,35 L60,35 L60,34 L54,34 L54,27 L60,27 L60,26 Z M53,31 L53,33 L51,33 L51,31 L53,31 Z M60,29 L56,29 L56,32 L60,32 L60,29 Z M53,28 L53,30 L51,30 L51,28 L53,28 Z M55,4 C50.037,4 46,8.038 46,13 L46,13 L46,20.232 C46.644,20.085 47.312,20 48,20 L48,20 L51.136,20 C48.673,18.635 47,16.01 47,13 C47,8.589 50.589,5 55,5 C59.411,5 63,8.589 63,13 C63,16.01 61.327,18.635 58.864,20 L58.864,20 L62,20 C62.688,20 63.356,20.085 64,20.232 L64,20.232 L64,13 C64,8.038 59.963,4 55,4 Z M55,7 C54.503,7 54.022,7.068 53.56,7.182 C54.97,7.634 56,8.942 56,10.5 C56,12.43 54.43,14 52.5,14 C50.942,14 49.634,12.97 49.182,11.56 C49.068,12.022 49,12.503 49,13 C49,16.309 51.691,19 55,19 C58.309,19 61,16.309 61,13 C61,9.691 58.309,7 55,7 Z M52.5,9 C51.673,9 51,9.673 51,10.5 C51,11.327 51.673,12 52.5,12 C53.327,12 54,11.327 54,10.5 C54,9.673 53.327,9 52.5,9 Z" id="RnD"></path>
                </g>
            </g>
        </g>
    </g>
</svg>