<?xml version="1.0" encoding="UTF-8"?>
<svg width="33px" height="62px" viewBox="0 0 33 62" version="1.1" xmlns="http://www.w3.org/2000/svg" xmlns:xlink="http://www.w3.org/1999/xlink">
    <title>sales</title>
    <g id="Participant" stroke="none" stroke-width="1" fill="none" fill-rule="evenodd">
        <g id="03_form_Manager_Onboarding_KPI--Copy-6" transform="translate(-710.000000, -312.000000)" fill="#FFFFFF" fill-rule="nonzero">
            <g id="Group-5" transform="translate(366.000000, 236.000000)">
                <g id="Group-3" transform="translate(66.000000, 76.000000)">
                    <path d="M309,42 C309,42.552 308.551,43 308,43 C307.449,43 307,42.552 307,42 L307,38.858 C308.72,38.411 310,36.859 310,35 L310,34 L310,32 L310,27 C310,23.033 307.404,19.596 303.745,18.426 L306.964,14 L302.475,14 C302.809,13.06 303,12.053 303,11 L303.5,11 C305.43,11 307,9.43 307,7.5 C307,5.57 305.43,4 303.5,4 L303.236,4 C302.238,4 301.341,3.445 300.895,2.553 C300.107,0.979 298.524,0 296.764,0 L291.236,0 C289.476,0 287.893,0.979 287.106,2.553 C286.659,3.445 285.762,4 284.764,4 L284.5,4 C282.57,4 281,5.57 281,7.5 C281,9.43 282.57,11 284.5,11 L285,11 C285,12.053 285.191,13.06 285.525,14 L281.036,14 L284.256,18.428 C280.591,19.594 278,23.014 278,27 L278,37 C278,40.305 280.686,42.994 283.99,43 L281.68,59.172 L284,57.514 L284,62 L295,62 L295,56.444 C295.31,56.625 295.644,56.766 296,56.858 L296,59.5 C296,60.879 297.122,62 298.5,62 C299.878,62 301,60.879 301,59.5 L301,56.86 C301.455,56.742 301.882,56.545 302.268,56.277 L306.32,59.172 L304,42.929 L304,42 L304,38.444 C304.31,38.625 304.644,38.766 305,38.858 L305,42 C305,43.654 306.346,45 308,45 C309.654,45 311,43.654 311,42 L311,40 L309,40 L309,42 Z M294,18 C290.14,18 287,14.859 287,11 L287,9 L289.784,9 L294.103,10.963 C294.039,11.13 294,11.31 294,11.5 C294,12.328 294.672,13 295.5,13 L297.5,13 C297.752,13 297.985,12.932 298.194,12.823 L300.4,13.826 C299.311,16.28 296.854,18 294,18 Z M295.81,19.817 L294,22.984 L292.19,19.817 C292.775,19.937 293.38,20 294,20 C294.62,20 295.225,19.937 295.81,19.817 Z M301,11 C301,11.297 300.975,11.587 300.939,11.874 L298.89,10.943 C298.669,10.391 298.131,10 297.5,10 L296.816,10 L294.616,9 L301,9 L301,11 Z M284.5,9 C283.673,9 283,8.327 283,7.5 C283,6.673 283.673,6 284.5,6 L284.764,6 C286.524,6 288.107,5.021 288.894,3.447 C289.341,2.555 290.238,2 291.236,2 L296.764,2 C297.762,2 298.659,2.555 299.105,3.447 C299.893,5.021 301.476,6 303.236,6 L303.5,6 C304.327,6 305,6.673 305,7.5 C305,8.327 304.327,9 303.5,9 L303,9 L303,7 L285,7 L285,9 L284.5,9 Z M286.522,16 C287.219,17.039 288.13,17.919 289.187,18.592 L294,27.016 L298.814,18.592 C299.87,17.92 300.782,17.039 301.479,16 L303.037,16 L295.988,25.692 L296.499,39 L291.501,39 L292.013,25.692 L284.964,16 L286.522,16 Z M280,27 C280,23.668 282.326,20.844 285.516,20.159 L289.988,26.307 L289.02,51.472 L284.32,54.828 L285.99,43.142 L285.991,43 L286,43 L286,25 L284,25 L284,37 L280,37 L280,27 Z M280.556,39 L284,39 L284,41 C282.526,41 281.25,40.19 280.556,39 Z M286,60 L286,58 L293,58 L293,60 L286,60 Z M295,53 L295,45 L293,45 L293,56 L286.12,56 L290.98,52.528 L291.424,41 L296.576,41 L297.019,52.528 L300.416,54.954 C300.281,54.983 300.141,55 300,55 L297,55 C295.897,55 295,54.103 295,53 Z M299,59.5 C299,59.775 298.776,60 298.5,60 C298.224,60 298,59.775 298,59.5 L298,57 L299,57 L299,59.5 Z M303.68,54.828 L298.981,51.472 L298.013,26.308 L302.485,20.159 C305.668,20.845 308,23.684 308,27 L308,32 L304,32 L304,25 L302,25 L302,32 L302,35 L302,42 L302,43 L303.68,54.828 Z M304,35 L304,34 L308,34 L308,35 C308,36.103 307.103,37 306,37 C304.897,37 304,36.103 304,35 Z" id="sales"></path>
                </g>
            </g>
        </g>
    </g>
</svg>